<?xml version="1.0" encoding="utf-8"?>
<!-- Generator: Adobe Illustrator 23.0.0, SVG Export Plug-In . SVG Version: 6.00 Build 0)  -->
<svg version="1.1" id="Camada_1" xmlns="http://www.w3.org/2000/svg" xmlns:xlink="http://www.w3.org/1999/xlink" x="0px" y="0px"
	 viewBox="0 0 290 290" style="enable-background:new 0 0 290 290;" xml:space="preserve">
<style type="text/css">
	.st0{fill:#A61D36;}
</style>
<g>
	<path class="st0" d="M78.85,175.69c-0.32,1.79-0.71,3.56-0.94,5.36c-0.61,4.72-1.09,9.45-1.76,14.16c-0.22,1.51-0.66,3.09-1.4,4.41
		c-1.47,2.64-3.13,5.2-4.88,7.68c-11.4,16.18-22.83,32.33-34.28,48.47c-1.55,2.18-3.14,4.36-4.96,6.3
		c-2.83,3.04-6.74,3.71-10.18,2.05c-3.45-1.67-5.45-5.33-4.98-9.31c0.1-0.89,0.41-1.8,0.81-2.61c0.97-1.97,1.99-3.92,3.1-5.81
		c10.17-17.29,20.35-34.57,30.55-51.85c1.72-2.91,2.34-6.1,2.44-9.41c0.25-7.63,0.36-15.28,0.74-22.9c0.21-4.34,1.24-8.67,1.2-12.99
		c-0.07-8.9,3.72-16.76,6.13-25c2.6-8.89,5.39-17.72,8.09-26.58c0.12-0.4,0.15-0.83,0.26-1.51c-2.15,0.5-4.1,0.85-5.99,1.42
		c-1.79,0.54-2.75,2.11-3.72,3.59c-4.71,7.19-9.39,14.39-14.14,21.56c-3.35,5.07-6.75,10.1-10.2,15.11
		c-2.32,3.37-5.7,4.38-9.29,2.93c-3.6-1.46-5.81-5.18-5.06-8.97c0.37-1.85,1.03-3.71,1.91-5.39c5.77-11,11.63-21.96,17.46-32.93
		c1.65-3.1,3.36-6.18,4.94-9.32c1.7-3.39,4.2-5.72,7.91-6.83c7.04-2.1,14.02-4.38,21.06-6.48c5.28-1.57,10.55-3.21,15.92-4.39
		c6.57-1.45,13.21-1.59,19.58,1.05c5.87,2.44,10.95,5.83,14.88,11.09c6.06,8.1,12.55,15.87,18.91,23.74
		c0.55,0.68,1.38,1.22,2.19,1.61c7.56,3.71,15.15,7.39,22.73,11.06c7.48,3.62,14.96,7.22,22.45,10.81c2.24,1.07,4.03,2.57,5,4.93
		c0.88,2.13,0.87,4.21-0.28,6.22c-0.59,1.04-1.27,2.02-2,3.18c1.94,0,3.78,0,5.75,0c0.23-2.65,0.37-5.36,0.71-8.04
		c0.79-6.23-0.35-12.36-0.85-18.53c-0.61-7.53-1.61-15.03-1.35-22.62c0.49-14.53,10.29-25.69,24.68-27.69
		c7.65-1.06,14.59,0.91,20.56,5.94c0.37,0.31,0.71,0.65,1.05,0.98c0.14,0.13,0.26,0.29,0.51,0.56c-1.76,0.37-3.42,0.68-5.06,1.07
		c-10.16,2.38-18.83,7.14-25.3,15.56c-4.48,5.84-7.7,12.31-9.91,19.3c-0.52,1.64-0.97,3.29-1.37,4.96
		c-0.12,0.51,0.07,1.09,0.28,1.61c2.17-8.64,6.01-16.39,11.49-23.27c6.66-8.35,15.11-14.05,25.67-16.35
		c1.01-0.22,2.08-0.22,3.07-0.49c2.01-0.54,3.29,0.24,4.41,1.88c3.49,5.09,5.8,10.57,5.89,16.82c0.25,17.2,0.47,34.4,0.7,51.59
		c0.03,2.08,0.12,4.16,0.14,6.24c0.03,2.13,0.7,4.05,1.64,5.95c1.96,3.97,3.91,7.96,5.71,12.01c1.81,4.06,0.73,8.34-2.54,10.77
		c-3.32,2.47-7.92,2.22-10.67-0.86c-1.72-1.92-3.2-4.1-4.51-6.33c-7.93-13.46-15.77-26.97-23.65-40.47
		c-0.73-1.25-1.5-1.67-3.34-1.74c0.47,1.04,0.83,2.04,1.36,2.95c3.33,5.78,6.67,11.55,10.07,17.3c3.97,6.71,8.01,13.37,11.99,20.07
		c0.77,1.3,1.43,2.67,2.2,4.13c-2.26,1.05-2.01,3.05-2.17,4.97c-0.51,6.18-1.14,12.34-1.69,18.51c-0.63,6.93-1.22,13.86-1.83,20.79
		c-0.77,8.76-1.52,17.53-2.32,26.28c-0.72,7.8-1.47,15.6-2.26,23.4c-0.42,4.13-0.85,8.27-1.44,12.38c-0.39,2.72-2.03,4.6-4.36,6.12
		c-2.09,1.36-4.27,1.31-6.53,1.25c-0.26-0.01-0.56-0.1-0.77-0.25c-1.49-1.08-2.98-2.15-4.43-3.28c-1.41-1.1-1.81-2.7-1.87-4.38
		c-0.09-2.2-0.13-4.4-0.12-6.6c0.11-25.76,0.23-51.52,0.34-77.28c0.01-1.47,0-2.94,0-4.56c-2.68-0.14-5.1-0.29-7.52-0.4
		c-7.87-0.36-15.74-0.71-23.61-1.06c-3.12-0.14-3.22-0.32-3.2-3.44c0.04-8-0.02-16-0.01-24c0.01-6.52,0.1-13.04,0.12-19.56
		c0-1.13,0.11-2.1,1.56-2.36c-0.31-0.13-0.62-0.27-0.93-0.39c-15.4-5.78-30.82-11.52-46.19-17.38c-1.55-0.59-2.95-1.72-4.21-2.84
		c-1.67-1.48-3.1-3.23-4.69-4.81c-0.7-0.69-1.52-1.26-2.45-2.01c-0.32,0.77-0.6,1.32-0.79,1.91c-2.8,8.91-5.58,17.83-8.39,26.74
		c-1.57,4.99-3.14,9.98-4.81,14.93c-0.61,1.81-1.43,3.56-2.29,5.26c-0.67,1.32-0.63,2.36,0.28,3.59c4.94,6.69,9.8,13.43,14.7,20.16
		c3.46,4.75,6.84,9.56,10.41,14.23c2.67,3.48,3.42,7.33,2.4,11.43c-1.1,4.41-2.56,8.72-3.89,13.07
		c-3.6,11.76-7.15,23.53-10.83,35.26c-1.44,4.61-3.22,9.11-4.75,13.69c-1.14,3.42-3.79,4.74-7.02,5.08
		c-6.13,0.65-10.09-3.5-9.41-9.97c0.31-3.01,1.01-5.98,1.67-8.94c3.25-14.58,6.55-29.15,9.8-43.72c1.01-4.53,0.97-4.53-2.06-8.06
		c-7.73-9.02-15.44-18.05-23.16-27.08c-0.75-0.88-1.4-1.86-2.18-2.71c-0.66-0.7-1.45-1.28-2.18-1.92
		C79.17,175.59,79.01,175.64,78.85,175.69z"/>
	<path class="st0" d="M245.4,65.84c-15.88,0.21-30.67-13.14-30.61-30.99c0.07-18.34,15.51-30.3,31.11-30.44
		c16.27-0.15,30.34,14.07,30.24,30.61C276.03,52.18,262.58,65.79,245.4,65.84z"/>
	<path class="st0" d="M140.73,44.89c-1.04,3.96-2.75,7.42-5.33,10.39c-7.47,8.59-16.93,11.75-27.84,8.88
		C96.7,61.3,90.59,53.56,88.4,42.71c-1.18-5.84-0.19-11.44,2.47-16.75c0.3-0.61,0.61-1.21,0.92-1.82c0.45-0.91,0.97-1.73,0.53-2.9
		c-0.24-0.64,0-1.51,0.17-2.24c0.52-2.17,0.97-4.37,1.71-6.47c1.21-3.42,3.59-5.8,6.8-7.56c2.61-1.42,5.27-1.92,8.15-1.66
		c0.24,0.02,0.48,0.03,0.71,0.1c8,2.47,16.01,4.92,24,7.43c2.05,0.64,4.11,1.33,6.06,2.24c6.63,3.1,8.94,8.1,7.17,15.21
		c-0.31,1.24-0.64,2.47-0.96,3.71c-0.33,1.25-0.12,2.28,0.83,3.28c1.97,2.07,3.21,4.56,3.72,7.39c0.11,0.58,0.15,1.19,0.12,1.79
		c-0.13,2.76-2.1,4.13-4.69,3.16c-1.3-0.49-2.5-1.23-3.75-1.86C141.85,45.51,141.36,45.24,140.73,44.89z"/>
</g>
</svg>
