<?xml version="1.0" encoding="utf-8"?>
<!-- Generator: Adobe Illustrator 23.0.0, SVG Export Plug-In . SVG Version: 6.00 Build 0)  -->
<svg version="1.1" id="Camada_1" xmlns="http://www.w3.org/2000/svg" xmlns:xlink="http://www.w3.org/1999/xlink" x="0px" y="0px"
	 viewBox="0 0 290 290" style="enable-background:new 0 0 290 290;" xml:space="preserve">
<path d="M280.9,188.9c-0.1,0.5-0.2,1.1-0.4,1.6c-0.3,0.8-0.7,1.6-1.1,2.4c-1,1.8-2.8,2.5-4.8,2.9c-3.2,0.6-6.5,0.8-9.7,0.8
	c-5.7,0-11.4-0.1-17.1-0.2c-2.3,0-4.7-0.1-7-0.2c-2.6-0.1-4.7-1.2-6.3-3.3c-2-2.8-3.5-5.8-5.1-8.9c-1.9-3.8-3.9-7.6-5.9-11.3
	c-0.7-1.2-1.5-2.3-2.3-3.5c-0.1-0.2-0.5-0.3-0.7-0.3c-0.7,0.1-1.4,0.2-2.1,0.3c-1,0.2-2,0.6-2.7,1.4c-3.1,3.5-7,6.1-10.6,9
	c-4.5,3.7-9.1,7.2-13.6,10.8c-0.4,0.3-0.5,0.6-0.3,1.1c1.1,4.3,2.8,8.4,4.4,12.5c2,5.2,4,10.3,6,15.5c0.5,1.3,0.9,2.7,0.7,4.1
	c-0.1,0.8-0.4,1.7-0.8,2.5c-0.7,1.2-1.6,2.2-2.5,3.3c-0.1,0.1-0.2,0.2-0.3,0.2c-2,0.3-4,0.9-6.1,0.6c-0.9-0.1-1.8-0.3-2.8-0.5
	c-0.2,0-0.3-0.2-0.5-0.4c-0.3-0.4-0.5-0.7-0.8-1.1c-0.6-0.9-1.3-1.7-1.7-2.7c-3.4-8.8-6.8-17.6-10.1-26.4c-1.1-2.8-2-5.7-2.5-8.7
	c-0.6-3.4,0.2-6.3,3-8.6c1.6-1.3,3.3-2.5,4.9-3.7c5.9-4.1,11.5-8.6,16.6-13.7c0.3-0.3,0.4-0.6,0.4-1c-0.8-5.3-1.6-10.6-2.5-16
	c-0.8-5.3-1.6-10.6-2.4-16c-0.2-1.1-0.3-2.1-0.5-3.3c-0.5,0.3-1.1,0.5-1.5,0.7c-2.4,1.5-4.9,3-7.3,4.4c-2.1,1.2-4.3,2.3-6.5,3.3
	c-2.1,1-4.2,0.8-6.1-0.5c-2.5-1.7-4.8-3.4-7.3-5.1c-2-1.4-4.1-2.8-6.2-4.2c-0.2-0.2-0.5-0.2-0.9-0.4c0.4,1.7,0.8,3.4,1.2,5.1
	c-0.6,0.2-1.3,0.3-1.9,0.5c-1.9,0.5-3.8,0.9-5.6,1.4c-0.5,0.1-0.7,0-0.9-0.5c-1.2-2.5-1.9-5.1-2.6-7.8c-0.2-0.8-0.5-1.5-0.7-2.3
	c-0.2-0.6-0.7-1-1.3-1.2c-2.1-0.7-4.2-1.6-6.1-2.8c-0.9-0.6-1.9-0.3-2.8-0.2c-1.9,0.2-3.7,0.8-5.4,1.6c-2,0.9-4.1,1.5-6.4,1.4
	c-0.3,0-0.5-0.1-0.6-0.4c-0.6-2.5-1.3-4.9-1.9-7.3c0-0.1,0-0.2,0-0.4c0.9-0.3,1.8-0.6,2.7-0.9c8-2.5,15.9-5,23.9-7.6
	c1.1-0.3,1.7,0.4,2.6,0.7c-0.2,0.2-0.3,0.3-0.5,0.5c0.6,0.3,1.1,0.7,1.7,0.9c1.1,0.4,2.1,0.6,3.2,0.9c3.6,1.1,6.6,3.1,9.3,5.5
	c1.7,1.5,3.5,2.9,5.2,4.3c1.3,1,2.8,1.8,4.5,2.1c1.4,0.3,2.7,0.1,4-0.7c5.5-3.3,11-6.6,16.5-10c3-1.9,6.3-2.9,9.8-3.3
	c2.7-0.3,5.3-0.8,8-1.1c2.4-0.3,4.8,0,7.1,1.1c6.8,3.2,13.6,6.3,20.5,9.4c5.6,2.6,11.2,5.1,16.9,7.7c2.5,1.1,5.1,2.2,7.6,3.3
	c1.4,0.6,2.6,1.6,3.7,2.7c1.8,1.9,2.3,4.1,1.6,6.6c-0.1,0.3-0.2,0.6-0.3,0.9c-1.3,3.3-3.9,4.8-7.5,4.3c-2.5-0.4-4.9-1.2-7.2-2.4
	c-8.5-4.5-17.4-8.1-26.2-11.9c-0.5-0.2-1.1-0.5-1.6-0.7c0,0-0.1,0-0.2,0c0,1,0.1,1.9,0.1,2.9c0.3,3.5,0.5,7,0.8,10.4
	c0.6,7.4,2.4,14.4,5.9,21c3.1,5.8,6.1,11.6,9.2,17.4c0.3,0.6,0.7,1.1,1,1.7c0.4,0.8,0.9,1,1.7,1c2.7,0,5.4,0.1,8.1,0
	c3.9,0,7.8-0.2,11.7-0.2c2.9,0,5.7,0.2,8.5,0.9c3.2,0.8,5,2.9,5.5,6.1c0,0.1,0.1,0.2,0.1,0.3C280.9,188.1,280.9,188.5,280.9,188.9z"
	/>
<path d="M56.1,171.9c-0.1,1.1-0.3,2.1-0.4,3.1c-0.1,3.7-0.3,7.3-0.3,11c0.1,10.6,0.3,21.2,0.4,31.8c0,2.3,0,4.6-0.5,6.9
	c-0.8,3.6-2.6,5.3-6.3,5.4c-1.8,0.1-3.6-0.2-5.4-0.4c-0.2,0-0.4-0.2-0.6-0.4c-2.4-2.8-3.7-6-3.6-9.7c0.1-2.8,0.2-5.7,0.2-8.5
	c0.1-9.3,0.2-18.6,0.3-28c0.1-15.1,0.2-30.1,0.2-45.2c0-6.1-0.4-12.2-0.6-18.2c0-0.5-0.2-0.9-0.7-1.2c-5.3-3.5-10.6-7-15.8-10.6
	c-1.8-1.2-3.5-2.7-5.3-4c-1-0.7-2.1-1.4-3.1-2.1c-0.8-0.6-1.7-1.1-2.5-1.7c-2.2-1.8-3.1-4.2-2.8-7c0.2-2.8,1.1-5.4,1.8-8
	c1.7-5.9,3.4-11.9,5.2-17.8c0.4-1.4,0.9-2.7,1.5-4c0.9-2.1,2.5-3.5,4.8-4c2.7-0.5,4.8,0.6,6.7,2.5c1.4,1.5,1.6,3.2,1.4,5.1
	c-0.3,3.3-1.2,6.5-2.2,9.7c-1.3,4.2-2.5,8.4-3.8,12.6c0,0.1-0.1,0.3-0.1,0.4c-0.4,1.6-0.4,1.6,0.9,2.7c0.9,0.7,1.9,1.5,2.9,2.1
	c3.9,2.3,7.6,4.9,11.1,7.8c0.9,0.7,1.8,1.3,2.8,2c1.6,1.1,3.5,1.6,5.4,1.6c2,0,4-0.1,5.9-0.1c3.5,0.1,7,0.2,10.5,0.4
	c2.4,0.2,4.6-0.2,6.6-1.6c3-2.1,6-4.1,8.9-6.2c3-2.1,6.1-4.3,9.4-6c0.3-0.2,0.4-0.3,0.3-0.6c-0.6-2.5-1.1-4.9-1.8-7.4
	c-1.3-4.4-2.7-8.7-3.9-13.1c-0.5-1.7-0.8-3.5-0.8-5.2c0.1-4.9,5-8,9.6-6.1c1.6,0.6,2.7,1.7,3.4,3.2c0.9,1.7,1.3,3.5,1.7,5.4
	c0.8,3.8,2.1,7.3,3.3,11c1.2,3.8,2.4,7.7,3,11.7c0.2,1.6,0.3,3.2,0.3,4.8c0,1.5-0.6,2.8-1.8,3.7c-1.6,1.2-3.3,2.5-5,3.6
	c-5,3.3-10,6.4-15,9.7c-1.3,0.9-2.6,1.9-3.9,2.8c-3.2,2.4-4.8,5.6-4.7,9.6c0,2,0.1,4.1,0.1,6.1c0,7.7,0.1,15.4,0.1,23.1
	c0,22.6-0.1,45.1-0.1,67.7c0,1.3-0.3,2.7-0.5,4c-0.4,2-1.8,3.3-3.7,3.8c-1.6,0.4-3.2,0.7-4.7,0.9c-0.2,0-0.4-0.1-0.5-0.2
	c-1.1-0.7-2.1-1.5-3.2-2.1c-1.7-0.9-2.5-2.4-2.6-4.3c-0.1-1.4-0.2-2.8-0.2-4.2c0-11.6,0-23.3,0.1-34.9c0-2.5,0.2-5,0.3-7.5
	c0-1.2,0-2.4-0.2-3.6C58.3,173,57.4,172.3,56.1,171.9z"/>
<path d="M196.6,71.5c8,0.1,14.9,6.1,16.2,14c1.6,9.6-4.9,17.5-13.6,19.2c-5.2,1-9.8,0.1-13.8-3.5c-3.1-2.8-4.8-6.3-5.4-10.4
	c-0.6-3.7-0.1-7.2,1.6-10.6c2.4-4.5,6.3-7,11.2-8.1C194.1,71.8,195.4,71.7,196.6,71.5z"/>
<path d="M56.4,103.7c-8.5,0-14.5-6-15.9-13.3c-1.6-8.6,2.8-16,11.3-19c4.5-1.6,8.9-1.7,13.1,0.7c2,1.1,3.6,2.6,4.9,4.5
	c3.2,4.6,4.3,9.7,3.1,15.1c-1.4,6.2-5.4,9.9-11.5,11.4c-1.6,0.4-3.3,0.6-5,0.8C56.4,103.8,56.4,103.8,56.4,103.7z"/>
</svg>
