<?xml version="1.0" encoding="utf-8"?>
<!-- Generator: Adobe Illustrator 23.0.0, SVG Export Plug-In . SVG Version: 6.00 Build 0)  -->
<svg version="1.1" id="Camada_1" xmlns="http://www.w3.org/2000/svg" xmlns:xlink="http://www.w3.org/1999/xlink" x="0px" y="0px"
	 viewBox="0 0 290 290" style="enable-background:new 0 0 290 290;" xml:space="preserve">
<path d="M177.5,37.9c0.5,0.1,1.1,0.2,1.6,0.3c3,0.8,5.1,2.8,6.3,5.5c0.4,0.9,0.3,2.1,0.3,3.1c-0.1,2.8-0.6,5.5-1.4,8.2
	c-1.6,5.5-3.3,11-5,16.5c-0.6,1.9-1,3.9-1.6,5.9c-0.1,0.4,0,0.7,0.3,1c1.3,1,2.6,2.2,4,3.1c5.3,3.2,10.5,6.7,15.3,10.7
	c0.3,0.3,0.7,0.5,1,0.8c2.9,2.3,6.3,3.2,10,3.1c4.5-0.1,9-0.1,13.5,0c2.2,0,4.4,0.2,6.6,0.4c2.4,0.2,4.6-0.4,6.6-1.7
	c3.5-2.4,7.1-4.8,10.6-7.3c4.1-2.9,8.2-5.9,12.8-8.3c0.4-0.2,0.3-0.5,0.3-0.8c-0.7-2.9-1.3-5.8-2.1-8.6c-1.5-5.4-3.3-10.7-4.8-16
	c-0.6-2.2-1.1-4.4-1.2-6.7c-0.3-4.1,2.4-7.6,6.4-8.6c3.2-0.8,7.8,0.3,9.9,4.4c1,2,1.6,4.1,2,6.3c0.9,4.8,2.7,9.4,4.1,14
	c1.5,4.7,2.9,9.4,3.7,14.3c0.4,2.3,0.6,4.6,0.3,7c-0.2,1.5-0.7,2.7-1.9,3.6c-2.1,1.6-4.2,3.2-6.3,4.6c-6.3,4.1-12.6,8.1-18.8,12.2
	c-1.8,1.2-3.5,2.5-5.2,3.8c-3.8,2.9-5.5,6.7-5.4,11.4c0,3.3,0.1,6.6,0.2,9.8c0,1.9,0.1,3.9,0.1,5.8c0,35.1-0.1,70.1-0.2,105.2
	c0,1.8-0.3,3.6-0.8,5.3c-0.7,2-1.9,3.4-3.9,4c-1.9,0.5-3.8,0.8-5.7,1.3c-0.8,0.2-1.3,0-2-0.5c-1.1-0.9-2.3-1.6-3.6-2.3
	c-2-1.1-2.9-2.7-3.1-4.9c-0.1-1.5-0.3-3-0.3-4.5c0-15.5,0.1-31,0.1-46.4c0-2.5,0.2-5,0.3-7.5c0-1.5,0-2.9-0.2-4.4
	c-0.2-1.5-1.3-2.5-2.9-2.7c-0.2,1.3-0.4,2.5-0.5,3.8c-0.6,8.9-0.3,17.8-0.2,26.7c0.1,10,0.3,20,0.3,30c0,1.8-0.2,3.7-0.6,5.5
	c-0.9,4.2-3.3,6.2-7.6,6.4c-2.3,0.1-4.6-0.1-6.8-0.5c-0.2,0-0.4-0.1-0.6-0.2c-1.9-2.3-3.7-4.7-4.2-7.6c-0.3-1.9-0.5-3.9-0.5-5.8
	c0-3.8,0.3-7.6,0.3-11.4c0.1-9.2,0.2-18.4,0.2-27.6c0.1-18.4,0.3-36.8,0.3-55.1c0-8-0.3-16.1-0.5-24.1c0-1.8-0.2-3.6-0.3-5.4
	c0-0.4-0.2-0.7-0.6-0.9c-6.7-4.5-13.3-8.9-19.9-13.4c-2.4-1.6-4.5-3.5-6.8-5.2c-1.1-0.8-2.3-1.5-3.5-2.3c-1.1-0.8-2.3-1.5-3.4-2.3
	c-2.6-2.2-3.7-5-3.5-8.4c0.2-3.3,1.1-6.4,2.1-9.5c2.4-7.3,4.4-14.7,6.4-22.1c0.6-2,1.3-4.1,2.2-6c1.2-2.5,3.1-4.1,5.9-4.7
	c0.4-0.1,0.8-0.1,1.1-0.2C177.1,37.9,177.3,37.9,177.5,37.9z"/>
<path d="M68.1,132.7c0.4,0,0.6,0,0.9,0c8.3,0,16.7,0,25,0c0.7,0,0.9-0.2,1.1-0.9c1.2-4.1,2.5-8.3,3.8-12.4c0.1-0.4,0.3-0.6,0.7-0.6
	c9.2,0.1,18.5,0.1,27.7,0.2c0.1,0,0.2,0,0.4,0c0,2.9,0,5.9,0,8.9c-0.2,0-0.5,0-0.7,0c-5.1,0-10.2,0-15.3,0c-0.5,0-0.7,0.1-0.8,0.6
	c-0.4,1.4-0.9,2.9-1.3,4.3c-0.1,0.4-0.1,0.6,0.3,0.9c1.5,1.2,2.9,2.7,3.6,4.6c1.8,4.6-0.3,10.3-4.7,12c-1.2,0.5-2.5,0.7-3.7,0.7
	c-4.4,0.1-8.8,0.2-13.2,0.2c-7.1-0.1-14.2-0.2-21.4,0.1c-3.9,0.1-7.7,0-11.6-0.7c-4.1-0.7-7.1-2.8-9.3-6.3c-1.4-2.3-2.4-4.8-3.3-7.3
	c-0.4-1-0.8-2-1.3-3c-0.8-1.4-1.7-1.5-3-0.5c-0.7,0.5-1.1,1.1-0.9,2c0.1,0.4,0,0.8,0.1,1.1c1.2,4,2.7,8,5.1,11.4
	c3,4.3,7.3,6.6,12.4,7.4c0.7,0.1,1.3,0.2,2.1,0.3c-0.1,0.7-0.2,1.5-0.4,2.2c-0.8,2.7-1.6,5.5-2.5,8.2c-0.5,1.7-1,3.3-0.6,5.1
	c0.1,0.6,0.3,1.1,0.6,1.6c2.8,6.2,5.7,12.4,8.5,18.7c6.7,14.9,13.3,29.9,19.9,44.8c1.1,2.5,1.9,5,1.8,7.8c-0.2,4-3,7.1-7,7.7
	c-2.9,0.5-5.4-0.3-7.6-2.3c-1.9-1.8-3.4-4.1-4.6-6.4c-7.4-14.6-15.7-28.7-23.5-43.1c-0.1-0.2-0.2-0.4-0.4-0.7
	c-0.6,1.6-1.2,3-1.6,4.4c-2.4,7.9-4.7,15.8-7,23.7c-1.7,5.7-3.3,11.5-5.5,17c-0.4,1.1-0.9,2.2-1.5,3.3c-1.4,2.9-3.9,4.4-7.1,4.5
	c-3.2,0.1-5.9-1.1-7.9-3.7c-0.8-1-1.2-2.2-1.2-3.5c-0.1-3.3,0.4-6.5,1-9.6c1.4-8.1,3.6-16,5.4-24c2.2-9.6,4.4-19.2,6.4-28.8
	c3.3-15.7,6.5-31.5,9.7-47.2c1.3-6.4,2.4-12.8,3.6-19.1c0.9-4.6,1.9-9.2,3.4-13.6c2.1-6.2,6.6-9.6,12.8-11c3.5-0.8,7-0.5,10.4,0.8
	c5.8,2.3,8.9,6.7,9.9,12.7c0.7,4.4-0.2,8.7-1.7,12.8c-1.5,3.9-3.2,7.8-4.7,11.7C68.9,130.5,68.5,131.6,68.1,132.7z"/>
<path d="M238.8,73.3c-0.1,5.2-1.5,9.8-5,13.6c-2.8,3-6.2,4.7-10.1,5.6c-4.9,1.2-9.7,1.1-14.4-1c-6.2-2.9-9.9-7.9-11.3-14.5
	c-1.6-7.6,0.3-14.3,6.2-19.5c4.9-4.3,10.7-6.4,17.3-5.8c5,0.4,9,2.9,12.1,6.7C237.1,62.8,238.7,67.9,238.8,73.3z"/>
<path d="M90.6,61.9c-0.1,5.6-1.7,10.5-5.8,14.5c-3,3-6.8,4.6-11,5.3c-4.5,0.8-8.9,0.4-13-1.7C55,77,51.5,72.1,50,65.7
	c-1.4-6-0.5-11.7,3.2-16.8c3.1-4.2,7.3-6.5,12.3-7.8c4.2-1.1,8.4-1.2,12.4,0.4c5.3,2.1,8.8,6.1,10.9,11.3
	C90.1,55.8,90.6,58.8,90.6,61.9z"/>
</svg>
