<?xml version="1.0"?>
<svg xmlns="http://www.w3.org/2000/svg" xmlns:xlink="http://www.w3.org/1999/xlink" version="1.1" id="Capa_1" x="0px" y="0px" width="512px" height="512px" viewBox="0 0 79.342 79.342" style="enable-background:new 0 0 79.342 79.342;" xml:space="preserve" class=""><g><g>
	<g>
		<path d="M70.079,31.899c-2.317-2.495-2.977-5.867-6.677-5.867c-3.882,0-4.585,3.455-6.907,6.134    c-1.852,2.14-5.746,2.817-5.746,6.571c0,4.902,5.664,7.771,12.653,7.771c6.987,0,12.655-2.869,12.655-7.771    C76.056,34.623,72.132,34.119,70.079,31.899z" data-original="#000000" class="active-path" fill="#000000"/>
		<path d="M52.221,28.137c-0.951-2.04-4.38-4.088-4.428-10.07c-1.195,3.499-1.072,7.844-1.072,10.093    c0,2.252,1.825,4.081,4.079,4.081C53.049,32.243,53.24,30.328,52.221,28.137z" data-original="#000000" class="active-path" fill="#000000"/>
		<path d="M78.259,18.067c0.531,4.667-4.211,8.017-4.945,10.143c-0.726,2.116-0.314,4.033,1.935,4.033s4.078-1.828,4.078-4.081    C79.326,25.913,79.553,20.19,78.259,18.067z" data-original="#000000" class="active-path" fill="#000000"/>
		<path d="M57.385,23.599c2.249,0,3.595-1.958,2.94-4.294c-0.611-2.165-3.232-3.063-2.384-9.831    c-1.047,1.149-3.385,7.874-3.385,10.123C54.557,21.849,55.131,23.599,57.385,23.599z" data-original="#000000" class="active-path" fill="#000000"/>
		<path d="M68.09,23.645c2.249,0,3.622-1.724,3.622-3.976c0-2.249-1.184-8.42-3.622-10.196c1.871,6.182-2.261,8.08-3.022,10.196    C64.413,21.494,65.839,23.645,68.09,23.645z" data-original="#000000" class="active-path" fill="#000000"/>
		<path d="M22.847,55.523c-2.321-2.68-3.024-6.131-6.907-6.131c-3.7,0-4.36,3.371-6.676,5.866c-2.058,2.218-5.98,2.724-5.98,6.839    c0,4.904,5.667,7.771,12.656,7.771c6.989,0,12.653-2.867,12.653-7.771C28.593,58.342,24.7,57.663,22.847,55.523z" data-original="#000000" class="active-path" fill="#000000"/>
		<path d="M27.12,51.495c-1.023,2.19-0.829,4.106,1.418,4.106c2.255,0,4.081-1.83,4.081-4.081c0-2.249,0.122-6.595-1.072-10.094    C31.5,47.407,28.071,49.456,27.12,51.495z" data-original="#000000" class="active-path" fill="#000000"/>
		<path d="M6.025,51.568c-0.731-2.126-5.476-5.475-4.943-10.142c-1.293,2.121-1.067,7.842-1.067,10.092    c0,2.253,1.827,4.08,4.076,4.08C6.34,55.601,6.754,53.685,6.025,51.568z" data-original="#000000" class="active-path" fill="#000000"/>
		<path d="M21.956,46.956c2.253,0,2.828-1.747,2.828-4.001c0-2.249-2.338-8.974-3.384-10.124c0.848,6.766-1.773,7.667-2.382,9.832    C18.36,44.999,19.706,46.956,21.956,46.956z" data-original="#000000" class="active-path" fill="#000000"/>
		<path d="M11.25,47.003c2.251,0,3.679-2.151,3.022-3.976c-0.761-2.117-4.891-4.015-3.022-10.197    c-2.438,1.776-3.62,7.948-3.62,10.197C7.63,45.279,9.001,47.003,11.25,47.003z" data-original="#000000" class="active-path" fill="#000000"/>
	</g>
</g></g> </svg>
