<?xml version="1.0" encoding="iso-8859-1"?>
<!-- Generator: Adobe Illustrator 18.0.0, SVG Export Plug-In . SVG Version: 6.00 Build 0)  -->
<!DOCTYPE svg PUBLIC "-//W3C//DTD SVG 1.1//EN" "http://www.w3.org/Graphics/SVG/1.1/DTD/svg11.dtd">
<svg version="1.1" id="Capa_1" xmlns="http://www.w3.org/2000/svg" xmlns:xlink="http://www.w3.org/1999/xlink" x="0px" y="0px"
	 viewBox="0 0 391.243 391.243" style="enable-background:new 0 0 391.243 391.243;" xml:space="preserve">
<path d="M358.319,0h-77.257c-4.963,0-9.401,2.22-12.4,5.711h-19.393c-0.684,0-1.365,0.011-2.032,0.032
	c-16.573,0.522-32.071,7.37-43.638,19.285c-3.023,3.114-5.684,6.492-7.978,10.072c-2.294-3.58-4.954-6.958-7.977-10.072
	C176.077,13.113,160.58,6.265,144.017,5.744c-0.678-0.022-1.359-0.033-2.043-0.033h-19.393C119.582,2.22,115.145,0,110.181,0H32.924
	c-9.03,0-16.351,7.32-16.351,16.351v20.716h5.163c0,14.565,16.211,25.975,36.906,25.975s36.906-11.409,36.906-25.975h30.983V25.711
	h15.442c0.466,0,0.93,0.007,1.403,0.022c23.688,0.745,42.244,19.908,42.244,43.625v296.644h-30.404v25.241h80.809v-25.241h-30.404
	V69.358c0-23.717,18.556-42.88,42.255-43.625c0.462-0.015,0.927-0.022,1.393-0.022h15.442v11.356h30.983
	c0,14.565,16.211,25.975,36.906,25.975c20.695,0,36.906-11.409,36.906-25.975h5.164V16.351C374.67,7.32,367.35,0,358.319,0z
	 M58.643,54.042c-15.127,0-27.906-7.773-27.906-16.975h55.813C86.549,46.269,73.77,54.042,58.643,54.042z M332.601,54.042
	c-15.127,0-27.906-7.773-27.906-16.975h55.813C360.507,46.269,347.728,54.042,332.601,54.042z"/>
<g>
</g>
<g>
</g>
<g>
</g>
<g>
</g>
<g>
</g>
<g>
</g>
<g>
</g>
<g>
</g>
<g>
</g>
<g>
</g>
<g>
</g>
<g>
</g>
<g>
</g>
<g>
</g>
<g>
</g>
</svg>
