<?xml version="1.0" encoding="iso-8859-1"?>
<!-- Generator: Adobe Illustrator 19.0.0, SVG Export Plug-In . SVG Version: 6.00 Build 0)  -->
<svg version="1.1" id="Layer_1" xmlns="http://www.w3.org/2000/svg" xmlns:xlink="http://www.w3.org/1999/xlink" x="0px" y="0px"
	 viewBox="0 0 512 512" style="enable-background:new 0 0 512 512;" xml:space="preserve">
<g>
	<g>
		<path d="M261.072,182.433c-9.965-2.031-16.852-11.205-16.021-21.339c1.928-23.521,1.732-22.018,2.172-24.025l-22.983,11.309
			l-5.427-6.188v53.181l17.597,2.819l29.865-14.696L261.072,182.433z"/>
	</g>
</g>
<g>
	<g>
		<path d="M453.487,203.428c-12.425,1.292-25.226-2.907-36.319-8.647c-3.958,3.001-7.351,5.961-9.895,8.327
			c-2.716,5.342-6.831,10.103-12.005,13.579c-4.604,3.095-9.988,5.174-15.888,5.879c11.329,8.715,25.696,12.655,38.444,12.655
			c28.875,0,41.588-20.818,42.116-21.703C462.742,208.805,458.983,202.866,453.487,203.428z"/>
	</g>
</g>
<g>
	<g>
		<path d="M457.704,155.719c-11.439-14.432-33.264-22.515-58.621-14.11c-16.38,5.43-25.803,15.487-30.93,23.279
			c-3.91,1.236-7.386,3.473-10.122,6.54c-1.551-1.025-12.132-8.012-13.99-9.238c-0.973-7.206-6.391-13.24-13.775-14.745
			l-62.089-12.652c-3.965-0.801-7.689,2.04-8.017,6.018c-0.012,0.15-1.581,19.279-1.753,21.375
			c-0.278,3.381,2.017,6.435,5.341,7.113l59.723,12.169c6.137,1.25,12.5-0.866,16.659-5.802c1.382,0.913,10.855,7.168,12.236,8.08
			c-0.487,3.782-0.055,7.667,1.488,11.521c-1.79,1.425-9.937,7.914-11.712,9.327c-4.681-4.646-11.357-6.018-17.108-4.301
			l-47.09,14.045c7.661,9.406,10.41,22.088,6.665,34.218l50.212-14.977c7.22-2.154,12.082-8.645,12.411-15.908
			c5.468-4.354,1.875-1.494,15.033-11.971c3.675,2.483,8.09,3.925,12.813,3.925c9.484,0.004,17.726-5.758,21.216-14.282
			c14.807-14.296,35.58-28.616,56.292-28.456c0.033,0,0.066,0,0.098,0c0.008,0,0.014-0.001,0.022,0
			C458.523,166.887,461.53,159.992,457.704,155.719z M375.08,196.227c-4.634,0-8.571-3.324-9.36-7.904
			c-1.004-5.826,3.48-11.136,9.399-11.136c4.634,0,8.572,3.324,9.361,7.903C385.475,190.869,381.027,196.227,375.08,196.227z"/>
	</g>
</g>
<g>
	<g>
		<path d="M144.426,0c-25.084,0-45.419,20.334-45.419,45.419c0,25.17,20.455,45.419,45.419,45.419
			c24.965,0,45.419-20.249,45.419-45.419C189.845,20.334,169.51,0,144.426,0z"/>
	</g>
</g>
<g>
	<g>
		<path d="M252.804,216.027l-74.851-11.989l-24.681-54.145l32.716,40.221l16.239,2.602V135.12c0-16.945-13.736-30.682-30.682-30.682
			H116.83c-16.945,0-30.682,13.736-30.682,30.682v157.661l9.929,80.092l-43.075,104.55c-5.267,12.783,0.826,27.415,13.61,32.682
			c12.781,5.267,27.415-0.827,32.682-13.609l45.583-110.636c1.643-3.988,2.229-8.335,1.697-12.616
			c-0.837-6.753-6.969-56.214-7.833-63.182h19.443c2.108,16.138,2.164,16.569,7.048,53.971l-24.934,117.741
			c-2.865,13.525,5.779,26.813,19.304,29.677c13.525,2.865,26.812-5.779,29.677-19.304l25.821-121.927
			c0.586-2.77,0.699-5.62,0.333-8.428c-3.515-26.919-10.688-81.844-12.291-94.12c-50.208-8.042-46.667-7.445-48.278-7.803
			c-16.423-3.646-25.294-17.237-26.648-24.021l-12.525-62.732l27.254,59.791c3.061,6.713,9.265,11.395,16.475,12.549l86.454,13.848
			c11.989,1.92,23.196-6.256,25.104-18.173C272.846,229.462,264.975,217.978,252.804,216.027z"/>
	</g>
</g>
<g>
</g>
<g>
</g>
<g>
</g>
<g>
</g>
<g>
</g>
<g>
</g>
<g>
</g>
<g>
</g>
<g>
</g>
<g>
</g>
<g>
</g>
<g>
</g>
<g>
</g>
<g>
</g>
<g>
</g>
</svg>
