<?xml version="1.0" encoding="iso-8859-1"?>
<!-- Generator: Adobe Illustrator 19.0.0, SVG Export Plug-In . SVG Version: 6.00 Build 0)  -->
<svg xmlns="http://www.w3.org/2000/svg" xmlns:xlink="http://www.w3.org/1999/xlink" version="1.1" id="Layer_1" x="0px" y="0px" viewBox="0 0 512 512" style="enable-background:new 0 0 512 512;" xml:space="preserve" width="512" height="512">
<g>
	<path d="M29.399,391.899c16.501,0,31-14.398,31-30.899h31.201c0,16.501,13.499,30.899,30,30.899c16.8,0,30-14.398,30-30.899h30   c0,16.501,13.499,30.899,30,30.899c16.8,0,30-14.398,30-30.899h30c0,16.501,13.499,30.899,30,30.899c16.8,0,30-14.398,30-30.899h30   c0,16.501,13.499,30.899,30,30.899c16.8,0,30-14.398,30-30.899h30c0,16.501,14.499,30.899,31,30.899   c15.37,0,28.087-11.732,29.399-27.142v-70.994l-19.834,6.768c-18.267,6.284-40.419-9.727-40.419-29.531h-30   c0,16.538-13.462,31.069-30,31.069s-30-14.531-30-31.069h-30c0,16.538-13.462,31.069-30,31.069s-30-14.531-30-31.069h-30   c0,16.538-13.462,31.069-30,31.069s-30-14.531-30-31.069h-30c0,16.538-13.462,31.069-30,31.069s-30-14.531-30-31.069h-30   c-0.015,20.127-22.753,36.079-41.503,29.18L0,292.621v72.134C1.315,380.197,14.066,391.899,29.399,391.899z"/>
	<path d="M512,413.537c-8.54,4.594-18.365,7.463-29.399,7.463c-17.701,0-34.9-7.2-46-19.501c-12.942,12.942-26.268,19.501-45,19.501   c-17.701,0-33.9-7.2-45-19.501C335.799,413.8,319.6,421,301.601,421c-17.701,0-33.9-7.2-45-19.501   C245.799,413.8,229.6,421,211.601,421c-17.701,0-33.9-7.2-45-19.501C155.799,413.8,139.6,421,121.601,421   c-17.701,0-33.9-7.2-45-19.501C71.904,404.37,56.003,421,29.399,421C18.358,421,8.535,418.133,0,413.544V481h512V413.537z"/>
	<rect x="56.23" y="33.73" transform="matrix(0.7071 0.7071 -0.7071 0.7071 78.7301 -32.6111)" width="45" height="90.001"/>
	<path d="M393.758,241l8.474-8.474l-84.853-84.853c-11.717-11.717-30.71-11.717-42.427,0L181.624,241   C307.757,241,266.552,241,393.758,241z"/>
	<path d="M260.636,95.448c-4.504-12.709-16.168-21.844-27.966-23.181l-84.998,11.766l-63.64,63.64l-11.766,84.998   c0.315,2.867,1.155,5.651,2.28,8.329h64.653l114.54-114.54C265.661,114.538,262.533,100.803,260.636,95.448z"/>
</g>















</svg>
